# xmcd
#
# Track frame offsets:
#	225
#	13141
#	27720
#	42274
#	58952
#	70543
#	85913
#	103079
#	122725
#	134090
#	151677
#	163860
#	175830
#	194689
#	207592
#	220375
#	232334
#	246939
#	266446
#	280061
#	296129
#	308884
#	324186
#	337585
#
# Disc length: 4660
#
# Revision: 1
# Processed by: cddbd v1.5.1PL0 Copyright (c) Steve Scherf et al.
# Submitted via: ExactAudioCopy v0.90b4
# Normalized: r0:DSETVAR1,TDELIM( - )
#
DISCID=75123118
DTITLE=Various Artist - Classic Cuts 36 Country
DYEAR=1900
DGENRE=
TTITLE0=Lynn Anderson - Rose Garden
TTITLE1=The Bellamy Brothers - If I Said IYou Had A  Beautiful Body Would You Hold It Against Me
TTITLE2=Glen Campbell - Rhinestone Cowboy
TTITLE3=Jhonny Cash - A Boy Named Sue
TTITLE4=Jhonny Cash - A Thing Called Love
TTITLE5=Billy Ray Cyrus - Achy Breaky Heart
TTITLE6=Dr. Hook - Sylvia's Mother
TTITLE7=Steve Earl - Copperhead Road
TTITLE8=Crystal Gayle - Don't It Make My Brown Eyes Blue
TTITLE9=The Judds - Love Can Build A Bridge
TTITLE10=Dolly Parton - 9 To 5
TTITLE11=Dolly Parton - Jolene
TTITLE12=Dolly Parton and Kenny Rogers - Islands In The Stream
TTITLE13=Elvis Presley - Promised Land
TTITLE14=Charlie Pride - Crystal Chandeliers
TTITLE15=Charlie Rich - The Most Beautiful Girl
TTITLE16=Jeannie C. Riley - Harper Valley P.T.A
TTITLE17=Kenny Rogers - Coward Of The County
TTITLE18=Kenny Rogers - Ruby Don't Take Your Love To Town
TTITLE19=Billie Joe Spears - Blanket On The Ground
TTITLE20=Ray Stevens - Misty
TTITLE21=Don Williams - I Recall A Gypsy Woman
TTITLE22=Tammy Wynette - D.I.V.O.R.C.E.
TTITLE23=Tammy Wynette - Stand By Your Man
EXTD=
EXTT0=
EXTT1=
EXTT2=
EXTT3=
EXTT4=
EXTT5=
EXTT6=
EXTT7=
EXTT8=
EXTT9=
EXTT10=
EXTT11=
EXTT12=
EXTT13=
EXTT14=
EXTT15=
EXTT16=
EXTT17=
EXTT18=
EXTT19=
EXTT20=
EXTT21=
EXTT22=
EXTT23=
PLAYORDER=
